<svg width="300" height="207" viewBox="0 0 300 207" fill="none" xmlns="http://www.w3.org/2000/svg">
<g clip-path="url(#clip0)">
<path fill-rule="evenodd" clip-rule="evenodd" d="M157.679 54.97H224.149C237.789 54.9665 251.177 58.6392 262.906 65.6015C274.635 72.5638 284.271 82.5584 290.8 94.534C297.328 106.51 300.509 120.023 300.007 133.654C299.505 147.284 295.338 160.527 287.946 171.99C280.554 183.453 270.209 192.711 258 198.792C245.79 204.872 232.168 207.55 218.565 206.543C204.963 205.536 191.883 200.882 180.703 193.069C169.522 185.257 160.653 174.576 155.029 162.15H145.029C139.405 174.576 130.537 185.257 119.356 193.069C108.175 200.882 95.0954 205.536 81.493 206.543C67.8905 207.55 54.2681 204.872 42.0588 198.792C29.8494 192.711 19.5045 183.453 12.1122 171.99C4.71992 160.527 0.553579 147.284 0.051453 133.654C-0.450673 120.023 2.72998 106.51 9.25882 94.534C15.7877 82.5584 25.4233 72.5638 37.1522 65.6015C48.8811 58.6392 62.2696 54.9665 75.9092 54.97H142.379V35.14C142.371 29.8832 140.279 24.844 136.562 21.1268C132.845 17.4097 127.806 15.3179 122.549 15.31H87.2092C85.2268 15.2383 83.3496 14.4005 81.9725 12.9727C80.5954 11.5449 79.8259 9.63864 79.8259 7.655C79.8259 5.67135 80.5954 3.76506 81.9725 2.3373C83.3496 0.909535 85.2268 0.0716603 87.2092 0H122.549C131.864 0.0132327 140.793 3.72004 147.379 10.3075C153.964 16.8949 157.669 25.8253 157.679 35.14V54.97ZM189.544 180.516C199.7 187.59 211.772 191.397 224.149 191.43C240.08 191.225 255.289 184.753 266.482 173.415C277.675 162.078 283.951 146.787 283.951 130.855C283.951 114.923 277.675 99.6323 266.482 88.2945C255.289 76.9568 240.08 70.4847 224.149 70.28H75.9092C64.8388 70.2816 53.9805 73.3167 44.5138 79.0555C35.0471 84.7943 27.3338 93.0174 22.2119 102.832C17.0901 112.646 14.7553 123.676 15.4614 134.724C16.1675 145.772 19.8874 156.415 26.217 165.497C32.5466 174.58 41.2439 181.754 51.3642 186.241C61.4844 190.728 72.6408 192.356 83.6213 190.948C94.6018 189.541 104.987 185.151 113.648 178.256C122.309 171.362 128.915 162.225 132.749 151.84C133.291 150.372 134.27 149.106 135.554 148.212C136.838 147.318 138.365 146.839 139.929 146.84H160.129C161.694 146.838 163.222 147.316 164.506 148.21C165.79 149.105 166.768 150.372 167.309 151.84C171.631 163.438 179.387 173.442 189.544 180.516ZM83.54 123.2H104.05C105.079 123.163 106.104 123.333 107.065 123.701C108.026 124.069 108.904 124.627 109.644 125.342C110.385 126.056 110.974 126.913 111.377 127.86C111.779 128.807 111.987 129.826 111.987 130.855C111.987 131.884 111.779 132.903 111.377 133.85C110.974 134.797 110.385 135.654 109.644 136.368C108.904 137.083 108.026 137.641 107.065 138.009C106.104 138.377 105.079 138.547 104.05 138.51H83.53V159.26C83.53 161.289 82.724 163.235 81.2894 164.669C79.8547 166.104 77.9089 166.91 75.88 166.91C73.8511 166.91 71.9053 166.104 70.4706 164.669C69.036 163.235 68.23 161.289 68.23 159.26V138.51H47.71C46.6815 138.547 45.656 138.377 44.6948 138.009C43.7336 137.641 42.8564 137.083 42.1156 136.368C41.3748 135.654 40.7856 134.797 40.3831 133.85C39.9807 132.903 39.7733 131.884 39.7733 130.855C39.7733 129.826 39.9807 128.807 40.3831 127.86C40.7856 126.913 41.3748 126.056 42.1156 125.342C42.8564 124.627 43.7336 124.069 44.6948 123.701C45.656 123.333 46.6815 123.163 47.71 123.2H68.23V102.44C68.3017 100.458 69.1395 98.5804 70.5673 97.2033C71.9951 95.8262 73.9014 95.0567 75.885 95.0567C77.8687 95.0567 79.7749 95.8262 81.2027 97.2033C82.6305 98.5804 83.4683 100.458 83.54 102.44V123.2ZM224.149 115.51C230.164 115.51 235.039 110.634 235.039 104.62C235.039 98.6056 230.164 93.73 224.149 93.73C218.135 93.73 213.259 98.6056 213.259 104.62C213.259 110.634 218.135 115.51 224.149 115.51ZM235.01 157.08C235.01 163.094 230.134 167.97 224.12 167.97C218.106 167.97 213.23 163.094 213.23 157.08C213.23 151.066 218.106 146.19 224.12 146.19C230.134 146.19 235.01 151.066 235.01 157.08ZM250.379 141.74C256.394 141.74 261.269 136.864 261.269 130.85C261.269 124.836 256.394 119.96 250.379 119.96C244.365 119.96 239.489 124.836 239.489 130.85C239.489 136.864 244.365 141.74 250.379 141.74ZM208.78 130.85C208.78 136.864 203.904 141.74 197.89 141.74C191.876 141.74 187 136.864 187 130.85C187 124.836 191.876 119.96 197.89 119.96C203.904 119.96 208.78 124.836 208.78 130.85Z" fill="url(#paint0_linear)"/>
</g>
<defs>
<linearGradient id="paint0_linear" x1="134" y1="83" x2="176.5" y2="180.5" gradientUnits="userSpaceOnUse">
<stop stop-color="#0C9BEC"/>
<stop offset="1" stop-color="#1859CE"/>
</linearGradient>
<clipPath id="clip0">
<rect width="300" height="206.73" fill="white"/>
</clipPath>
</defs>
</svg>
