<svg width="300" height="300" viewBox="0 0 300 300" fill="none" xmlns="http://www.w3.org/2000/svg">
<g clip-path="url(#clip0)">
<path d="M293.3 4.4C289.926 1.56067 285.659 0.00255416 281.25 0L278 0.29L118.59 28.42C114.251 29.183 110.32 31.4529 107.49 34.8298C104.66 38.2067 103.112 42.4741 103.12 46.88V207.88C93.6 200.98 81.25 196.88 67.55 196.88C59.4887 196.9 51.483 198.216 43.84 200.78C26.04 206.71 11.78 218.61 4.69004 233.44C-0.789959 244.9 -1.48996 257.37 2.69004 268.56C9.82004 287.65 30.08 300 54.32 300C62.379 299.991 70.3832 298.674 78.0201 296.1C95.8 290.18 110.02 278.29 117.16 263.48C120.098 257.315 121.645 250.579 121.69 243.75H121.86V93.75L125.12 93.48L281.25 65.93V179.72C271.72 172.82 259.39 168.72 245.67 168.72C237.608 168.737 229.602 170.054 221.96 172.62C204.19 178.55 189.9 190.45 182.83 205.28C177.36 216.75 176.64 229.22 180.83 240.4C187.97 259.5 208.22 271.85 232.46 271.85C240.516 271.858 248.52 270.557 256.16 268C273.94 262.09 288.16 250.19 295.29 235.38C298.243 229.22 299.791 222.481 299.82 215.65H300V18.75C299.996 16.0145 299.394 13.3129 298.237 10.8342C297.079 8.35553 295.395 6.1596 293.3 4.4ZM72.07 278.32C49.6 285.82 26.38 278.51 20.23 262.03C14.08 245.55 27.23 226.09 49.72 218.58C72.21 211.07 95.41 218.39 101.56 234.89C107.71 251.39 94.53 270.83 72.07 278.32ZM280.87 46.88L121.48 75V46.88L280.87 18.75V46.88ZM249.87 250.2C227.4 257.69 204.17 250.39 198.03 233.91C191.89 217.43 205.08 197.96 227.52 190.45C249.96 182.94 273.23 190.27 279.37 206.77C285.51 223.27 272.33 242.71 249.85 250.2H249.87Z" fill="url(#paint0_linear)"/>
</g>
<defs>
<linearGradient id="paint0_linear" x1="149.998" y1="0" x2="149.998" y2="300" gradientUnits="userSpaceOnUse">
<stop stop-color="#6732FF"/>
<stop offset="0.0001" stop-color="#4F75FF"/>
<stop offset="1" stop-color="#0D39A9"/>
</linearGradient>
<clipPath id="clip0">
<rect width="300" height="300" fill="white"/>
</clipPath>
</defs>
</svg>
