<svg width="84" height="75" viewBox="0 0 84 75" fill="none" xmlns="http://www.w3.org/2000/svg">
<g clip-path="url(#clip0)">
<path d="M45 57.07C45 57.9801 44.8208 58.8812 44.4725 59.722C44.1242 60.5628 43.6138 61.3267 42.9702 61.9702C42.3267 62.6138 41.5628 63.1242 40.722 63.4725C39.8812 63.8208 38.9801 64 38.07 64H6.92999C5.09204 64 3.32938 63.2699 2.02975 61.9702C0.730128 60.6706 0 58.908 0 57.07V6.93C0 5.09205 0.730128 3.32937 2.02975 2.02975C3.32938 0.73012 5.09204 0 6.92999 0H38.07C38.9801 0 39.8812 0.179246 40.722 0.527512C41.5628 0.875777 42.3267 1.38624 42.9702 2.02975C43.6138 2.67326 44.1242 3.43722 44.4725 4.27801C44.8208 5.11879 45 6.01994 45 6.93V57.07ZM41 6.93C41 6.54523 40.9242 6.16422 40.777 5.80874C40.6297 5.45325 40.4139 5.13025 40.1418 4.85818C39.8698 4.5861 39.5468 4.37028 39.1913 4.22303C38.8358 4.07578 38.4548 4 38.07 4H6.92999C6.54522 4 6.16422 4.07578 5.80873 4.22303C5.45325 4.37028 5.13025 4.5861 4.85817 4.85818C4.58609 5.13025 4.37028 5.45325 4.22304 5.80874C4.07579 6.16422 4 6.54523 4 6.93V57.07C4 57.4548 4.07579 57.8358 4.22304 58.1913C4.37028 58.5468 4.58609 58.8698 4.85817 59.1418C5.13025 59.4139 5.45325 59.6297 5.80873 59.777C6.16422 59.9242 6.54522 60 6.92999 60H38.07C38.4548 60 38.8358 59.9242 39.1913 59.777C39.5468 59.6297 39.8698 59.4139 40.1418 59.1418C40.4139 58.8698 40.6297 58.5468 40.777 58.1913C40.9242 57.8358 41 57.4548 41 57.07V6.93Z" fill="url(#paint0_linear)"/>
<path d="M42.95 51H1.94995C1.68473 51 1.43038 50.8946 1.24284 50.7071C1.05531 50.5196 0.949951 50.2652 0.949951 50C0.949951 49.7348 1.05531 49.4804 1.24284 49.2929C1.43038 49.1054 1.68473 49 1.94995 49H42.95C43.2152 49 43.4695 49.1054 43.6571 49.2929C43.8446 49.4804 43.95 49.7348 43.95 50C43.95 50.2652 43.8446 50.5196 43.6571 50.7071C43.4695 50.8946 43.2152 51 42.95 51Z" fill="url(#paint1_linear)"/>
<path d="M42.95 11H1.94995C1.68473 11 1.43038 10.8946 1.24284 10.7071C1.05531 10.5196 0.949951 10.2652 0.949951 10C0.949951 9.73478 1.05531 9.48043 1.24284 9.29289C1.43038 9.10536 1.68473 9 1.94995 9H42.95C43.2152 9 43.4695 9.10536 43.6571 9.29289C43.8446 9.48043 43.95 9.73478 43.95 10C43.95 10.2652 43.8446 10.5196 43.6571 10.7071C43.4695 10.8946 43.2152 11 42.95 11Z" fill="url(#paint2_linear)"/>
<path d="M25 55.25C25 55.7141 24.8156 56.1593 24.4874 56.4874C24.1593 56.8156 23.7141 57 23.25 57H22.75C22.2859 57 21.8407 56.8156 21.5126 56.4874C21.1844 56.1593 21 55.7141 21 55.25V54.75C21 54.2859 21.1844 53.8407 21.5126 53.5126C21.8407 53.1844 22.2859 53 22.75 53H23.25C23.7141 53 24.1593 53.1844 24.4874 53.5126C24.8156 53.8407 25 54.2859 25 54.75V55.25Z" fill="url(#paint3_linear)"/>
<path d="M27.0201 28.77C26.9075 28.7687 26.796 28.7484 26.6901 28.71C26.4414 28.6217 26.2378 28.4386 26.1235 28.2007C26.0092 27.9628 25.9936 27.6893 26.0801 27.44L26.3501 26.66C26.4385 26.4113 26.6216 26.2076 26.8595 26.0934C27.0973 25.9791 27.3708 25.9635 27.6201 26.05C27.7453 26.0927 27.8608 26.1598 27.9599 26.2474C28.059 26.3351 28.1397 26.4415 28.1974 26.5606C28.255 26.6796 28.2885 26.8089 28.2958 26.941C28.3032 27.0731 28.2842 27.2053 28.2401 27.33L27.9601 28.1C27.8919 28.2951 27.7649 28.4643 27.5966 28.5843C27.4282 28.7043 27.2268 28.7692 27.0201 28.77Z" fill="url(#paint4_linear)"/>
<path d="M23.21 39.62C23.0979 39.6219 22.9864 39.6051 22.88 39.57C22.6294 39.4837 22.4234 39.3014 22.3072 39.0633C22.1909 38.8252 22.1739 38.5506 22.26 38.3L25.1 30.22C25.1875 29.9694 25.371 29.7638 25.6101 29.6484C25.8492 29.5331 26.1243 29.5175 26.375 29.605C26.6256 29.6925 26.8312 29.876 26.9465 30.1151C27.0619 30.3542 27.0775 30.6294 26.99 30.88L24.15 39C24.0737 39.1858 23.9432 39.3443 23.7755 39.4549C23.6079 39.5655 23.4108 39.623 23.21 39.62Z" fill="url(#paint5_linear)"/>
<path d="M19.15 32.08C19.0379 32.0819 18.9264 32.065 18.82 32.03C18.6957 31.9863 18.5812 31.9185 18.4832 31.8304C18.3852 31.7423 18.3056 31.6357 18.2489 31.5168C18.1922 31.3979 18.1596 31.2689 18.1529 31.1373C18.1462 31.0057 18.1656 30.8741 18.21 30.75L22.36 18.94C22.463 18.712 22.6477 18.5308 22.8778 18.4324C23.1078 18.3339 23.3664 18.3253 23.6025 18.4082C23.8386 18.4911 24.0351 18.6594 24.1531 18.8801C24.2711 19.1007 24.3021 19.3576 24.24 19.6L20.1 31.42C20.0295 31.6149 19.9003 31.7831 19.7301 31.9013C19.5599 32.0195 19.3572 32.082 19.15 32.08Z" fill="url(#paint6_linear)"/>
<path d="M17.2099 37.62C17.0979 37.6219 16.9863 37.605 16.8799 37.57C16.7547 37.5273 16.6392 37.4602 16.5401 37.3726C16.441 37.2849 16.3603 37.1785 16.3027 37.0594C16.245 36.9404 16.2115 36.8111 16.2042 36.679C16.1968 36.5469 16.2158 36.4147 16.2599 36.29L16.8699 34.56C16.9574 34.3094 17.1409 34.1038 17.38 33.9884C17.6191 33.8731 17.8943 33.8575 18.1449 33.945C18.3955 34.0325 18.6011 34.216 18.7165 34.4551C18.8318 34.6942 18.8474 34.9694 18.7599 35.22L18.1499 36.96C18.08 37.1533 17.9523 37.3203 17.7841 37.4384C17.6159 37.5565 17.4154 37.6199 17.2099 37.62Z" fill="url(#paint7_linear)"/>
<path d="M76.57 29.5H48.62V33.5H76.57C77.3471 33.5 78.0923 33.8087 78.6418 34.3582C79.1913 34.9077 79.5 35.6529 79.5 36.43V67.57C79.5 68.3471 79.1913 69.0923 78.6418 69.6418C78.0923 70.1913 77.3471 70.5 76.57 70.5H26.43C25.6529 70.5 24.9077 70.1913 24.3582 69.6418C23.8087 69.0923 23.5 68.3471 23.5 67.57V66.86C22.17 66.86 20.83 66.86 19.5 66.8V67.57C19.5 69.408 20.2301 71.1706 21.5298 72.4702C22.8294 73.7699 24.592 74.5 26.43 74.5H76.57C78.408 74.5 80.1706 73.7699 81.4702 72.4702C82.7699 71.1706 83.5 69.408 83.5 67.57V36.43C83.5 34.592 82.7699 32.8294 81.4702 31.5298C80.1706 30.2301 78.408 29.5 76.57 29.5Z" fill="url(#paint8_linear)"/>
<path d="M69.5 73.45C69.2348 73.45 68.9804 73.3447 68.7929 73.1571C68.6054 72.9696 68.5 72.7152 68.5 72.45V31.45C68.5 31.1848 68.6054 30.9304 68.7929 30.7429C68.9804 30.5554 69.2348 30.45 69.5 30.45C69.7652 30.45 70.0196 30.5554 70.2071 30.7429C70.3946 30.9304 70.5 31.1848 70.5 31.45V72.45C70.5 72.7152 70.3946 72.9696 70.2071 73.1571C70.0196 73.3447 69.7652 73.45 69.5 73.45Z" fill="url(#paint9_linear)"/>
<path d="M29.5 73.45C28.95 73.45 28.5 73.39 28.5 73.3V67C28.5 66.91 28.95 66.85 29.5 66.85C30.05 66.85 30.5 66.91 30.5 67V73.27C30.5 73.39 30.05 73.45 29.5 73.45Z" fill="url(#paint10_linear)"/>
<path d="M74.25 54.5C73.7859 54.5 73.3407 54.3156 73.0126 53.9874C72.6844 53.6593 72.5 53.2141 72.5 52.75V52.25C72.5 51.7859 72.6844 51.3407 73.0126 51.0126C73.3407 50.6844 73.7859 50.5 74.25 50.5H74.75C75.2141 50.5 75.6593 50.6844 75.9874 51.0126C76.3156 51.3407 76.5 51.7859 76.5 52.25V52.75C76.5 53.2141 76.3156 53.6593 75.9874 53.9874C75.6593 54.3156 75.2141 54.5 74.75 54.5H74.25Z" fill="url(#paint11_linear)"/>
</g>
<defs>
<linearGradient id="paint0_linear" x1="22.5" y1="0" x2="22.5" y2="64" gradientUnits="userSpaceOnUse">
<stop stop-color="#518CF5"/>
<stop offset="1" stop-color="#104BB4"/>
</linearGradient>
<linearGradient id="paint1_linear" x1="22.45" y1="49" x2="22.45" y2="51" gradientUnits="userSpaceOnUse">
<stop stop-color="#518CF5"/>
<stop offset="1" stop-color="#104BB4"/>
</linearGradient>
<linearGradient id="paint2_linear" x1="22.45" y1="9" x2="22.45" y2="11" gradientUnits="userSpaceOnUse">
<stop stop-color="#518CF5"/>
<stop offset="1" stop-color="#104BB4"/>
</linearGradient>
<linearGradient id="paint3_linear" x1="23" y1="53" x2="23" y2="57" gradientUnits="userSpaceOnUse">
<stop stop-color="#518CF5"/>
<stop offset="1" stop-color="#104BB4"/>
</linearGradient>
<linearGradient id="paint4_linear" x1="27.1611" y1="25.9948" x2="27.1611" y2="28.77" gradientUnits="userSpaceOnUse">
<stop stop-color="#518CF5"/>
<stop offset="1" stop-color="#104BB4"/>
</linearGradient>
<linearGradient id="paint5_linear" x1="24.6259" y1="29.549" x2="24.6259" y2="39.6202" gradientUnits="userSpaceOnUse">
<stop stop-color="#518CF5"/>
<stop offset="1" stop-color="#104BB4"/>
</linearGradient>
<linearGradient id="paint6_linear" x1="21.2114" y1="18.3517" x2="21.2114" y2="32.0801" gradientUnits="userSpaceOnUse">
<stop stop-color="#518CF5"/>
<stop offset="1" stop-color="#104BB4"/>
</linearGradient>
<linearGradient id="paint7_linear" x1="17.5092" y1="33.889" x2="17.5092" y2="37.6201" gradientUnits="userSpaceOnUse">
<stop stop-color="#518CF5"/>
<stop offset="1" stop-color="#104BB4"/>
</linearGradient>
<linearGradient id="paint8_linear" x1="51.5" y1="29.5" x2="51.5" y2="74.5" gradientUnits="userSpaceOnUse">
<stop stop-color="#518CF5"/>
<stop offset="1" stop-color="#104BB4"/>
</linearGradient>
<linearGradient id="paint9_linear" x1="69.5" y1="30.45" x2="69.5" y2="73.45" gradientUnits="userSpaceOnUse">
<stop stop-color="#518CF5"/>
<stop offset="1" stop-color="#104BB4"/>
</linearGradient>
<linearGradient id="paint10_linear" x1="29.5" y1="66.85" x2="29.5" y2="73.45" gradientUnits="userSpaceOnUse">
<stop stop-color="#518CF5"/>
<stop offset="1" stop-color="#104BB4"/>
</linearGradient>
<linearGradient id="paint11_linear" x1="74.5" y1="50.5" x2="74.5" y2="54.5" gradientUnits="userSpaceOnUse">
<stop stop-color="#518CF5"/>
<stop offset="1" stop-color="#104BB4"/>
</linearGradient>
<clipPath id="clip0">
<rect width="83.5" height="74.5" fill="white"/>
</clipPath>
</defs>
</svg>
