<svg width="300" height="300" viewBox="0 0 300 300" fill="none" xmlns="http://www.w3.org/2000/svg">
<path d="M150 -0.019989C120.333 -0.019989 91.3318 8.77736 66.6644 25.2596C41.997 41.7418 22.7712 65.1686 11.418 92.5775C0.0648708 119.986 -2.90563 150.146 2.88215 179.244C8.66994 208.341 22.956 235.068 43.9339 256.046C64.9118 277.024 91.6392 291.31 120.736 297.098C149.834 302.886 179.994 299.915 207.402 288.562C234.811 277.209 258.238 257.983 274.72 233.316C291.203 208.648 300 179.647 300 149.98C300 110.198 284.196 72.0445 256.066 43.914C227.935 15.7835 189.782 -0.019989 150 -0.019989ZM150 285.44C75.3999 285.44 14.5399 224.58 14.5399 149.98C14.5399 75.38 75.3999 14.54 150 14.54C224.6 14.54 285.46 75.4 285.46 149.98C285.46 185.908 271.189 220.365 245.786 245.772C220.383 271.179 185.928 285.455 150 285.46V285.44ZM208.49 139.78C208.09 139.78 208.09 139.38 207.7 139.38L124.44 91.47C122.09 89.9744 119.375 89.1544 116.59 89.1C111.1 89.1 105.21 93.43 105.21 102.85V197.08C105.61 206.49 111.1 210.82 116.99 210.82C119.899 210.769 122.744 209.955 125.24 208.46L204.93 162.46C210.82 159.34 213.58 155.01 213.93 150.29C214.38 148.44 213.62 143.71 208.49 139.78ZM119.75 195.15V105.61L197.12 150.36L119.75 195.15Z" fill="black"/>
<path d="M150 -0.019989C120.333 -0.019989 91.3318 8.77736 66.6644 25.2596C41.997 41.7418 22.7712 65.1686 11.418 92.5775C0.0648708 119.986 -2.90563 150.146 2.88215 179.244C8.66994 208.341 22.956 235.068 43.9339 256.046C64.9118 277.024 91.6392 291.31 120.736 297.098C149.834 302.886 179.994 299.915 207.402 288.562C234.811 277.209 258.238 257.983 274.72 233.316C291.203 208.648 300 179.647 300 149.98C300 110.198 284.196 72.0445 256.066 43.914C227.935 15.7835 189.782 -0.019989 150 -0.019989ZM150 285.44C75.3999 285.44 14.5399 224.58 14.5399 149.98C14.5399 75.38 75.3999 14.54 150 14.54C224.6 14.54 285.46 75.4 285.46 149.98C285.46 185.908 271.189 220.365 245.786 245.772C220.383 271.179 185.928 285.455 150 285.46V285.44ZM208.49 139.78C208.09 139.78 208.09 139.38 207.7 139.38L124.44 91.47C122.09 89.9744 119.375 89.1544 116.59 89.1C111.1 89.1 105.21 93.43 105.21 102.85V197.08C105.61 206.49 111.1 210.82 116.99 210.82C119.899 210.769 122.744 209.955 125.24 208.46L204.93 162.46C210.82 159.34 213.58 155.01 213.93 150.29C214.38 148.44 213.62 143.71 208.49 139.78ZM119.75 195.15V105.61L197.12 150.36L119.75 195.15Z" fill="url(#paint0_linear)"/>
<defs>
<linearGradient id="paint0_linear" x1="133.974" y1="120.415" x2="210.038" y2="240.652" gradientUnits="userSpaceOnUse">
<stop stop-color="#0C9BEC"/>
<stop offset="1" stop-color="#1859CE"/>
</linearGradient>
</defs>
</svg>
